<svg width="412" height="132" viewBox="0 0 412 132" fill="none" xmlns="http://www.w3.org/2000/svg">
<path d="M6.84 47.78C5.96 47.78 5.02 47.72 4.02 47.6C3.02 47.48 1.96 47.28 0.84 47L1.56 35.66C2.12 35.78 2.64 35.84 3.12 35.84C4.68 35.84 5.84 35.2 6.6 33.92C7.36 32.64 7.88 30.92 8.16 28.76C8.44 26.56 8.62 24.1 8.7 21.38L9.24 5H44.7V47H30.78V12.98L33.84 15.98H18.54L21.3 12.8L21.06 20.84C20.94 24.88 20.66 28.56 20.22 31.88C19.82 35.16 19.12 38 18.12 40.4C17.12 42.76 15.7 44.58 13.86 45.86C12.06 47.14 9.72 47.78 6.84 47.78ZM59.3184 59.24C57.5184 59.24 55.6784 58.96 53.7984 58.4C51.9584 57.88 50.4784 57.18 49.3584 56.3L53.8584 47C54.5384 47.52 55.2984 47.94 56.1384 48.26C57.0184 48.58 57.8584 48.74 58.6584 48.74C59.8584 48.74 60.7784 48.48 61.4184 47.96C62.0584 47.48 62.5784 46.74 62.9784 45.74L64.3584 42.26L65.3184 40.94L75.8184 14.18H88.6584L75.1584 47.66C73.9584 50.66 72.5584 53 70.9584 54.68C69.3984 56.36 67.6384 57.54 65.6784 58.22C63.7584 58.9 61.6384 59.24 59.3184 59.24ZM62.4984 48.5L48.2184 14.18H62.1384L71.9784 39.74L62.4984 48.5ZM112.417 35.36C111.537 36 110.397 36.54 108.997 36.98C107.637 37.38 105.957 37.58 103.957 37.58C99.2366 37.58 95.6966 36.54 93.3366 34.46C91.0166 32.34 89.8566 28.92 89.8566 24.2V14.18H103.357V23.3C103.357 24.98 103.677 26.14 104.317 26.78C104.957 27.38 105.917 27.68 107.197 27.68C108.317 27.68 109.297 27.56 110.137 27.32C111.017 27.04 111.757 26.68 112.357 26.24L112.417 35.36ZM111.517 47V14.18H125.017V47H111.517ZM154.603 36.38L151.663 39.32V14.18H165.163V39.32L162.163 36.38H174.823L171.883 39.32V14.18H185.323V47H131.383V14.18H144.883V39.32L141.943 36.38H154.603ZM191.676 47V14.18H205.176V29L216.516 14.18H228.996V47H215.496V32.12L204.216 47H191.676ZM253.028 47.6C249.028 47.6 245.528 46.86 242.528 45.38C239.568 43.9 237.268 41.88 235.628 39.32C233.988 36.72 233.168 33.8 233.168 30.56C233.168 27.24 233.968 24.3 235.568 21.74C237.208 19.18 239.428 17.18 242.228 15.74C245.068 14.3 248.248 13.58 251.768 13.58C255.008 13.58 257.988 14.22 260.708 15.5C263.468 16.78 265.668 18.68 267.308 21.2C268.988 23.72 269.828 26.84 269.828 30.56C269.828 31.04 269.808 31.58 269.768 32.18C269.728 32.74 269.688 33.26 269.648 33.74H244.388V27.2H262.448L257.348 28.94C257.348 27.66 257.108 26.58 256.628 25.7C256.188 24.78 255.568 24.08 254.768 23.6C253.968 23.08 253.008 22.82 251.888 22.82C250.768 22.82 249.788 23.08 248.948 23.6C248.148 24.08 247.528 24.78 247.088 25.7C246.648 26.58 246.428 27.66 246.428 28.94V30.98C246.428 32.38 246.708 33.58 247.268 34.58C247.828 35.58 248.628 36.34 249.668 36.86C250.708 37.34 251.968 37.58 253.448 37.58C254.968 37.58 256.208 37.38 257.168 36.98C258.168 36.58 259.208 35.98 260.288 35.18L267.368 42.32C265.768 44.04 263.788 45.36 261.428 46.28C259.108 47.16 256.308 47.6 253.028 47.6ZM310.452 47.96C307.812 47.96 305.312 47.6 302.952 46.88C300.632 46.16 298.592 44.98 296.832 43.34C295.072 41.7 293.692 39.54 292.692 36.86C291.692 34.18 291.192 30.88 291.192 26.96C291.192 24.48 291.412 22.18 291.852 20.06C292.292 17.9 292.972 15.92 293.892 14.12C294.812 12.32 295.992 10.74 297.432 9.38C298.872 7.98 300.592 6.82 302.592 5.9C304.592 4.94 306.872 4.22 309.432 3.74L325.752 0.799998L327.552 11.9L313.752 14.36C312.872 14.52 311.972 14.72 311.052 14.96C310.132 15.16 309.252 15.46 308.412 15.86C307.572 16.22 306.812 16.74 306.132 17.42C305.452 18.1 304.912 18.98 304.512 20.06C304.152 21.14 303.972 22.48 303.972 24.08C303.972 24.56 303.992 24.96 304.032 25.28C304.072 25.6 304.112 25.98 304.152 26.42C304.192 26.82 304.212 27.46 304.212 28.34L300.792 25.34C301.832 23.9 303.012 22.68 304.332 21.68C305.652 20.64 307.152 19.84 308.832 19.28C310.512 18.72 312.412 18.44 314.532 18.44C317.732 18.44 320.452 19.04 322.692 20.24C324.972 21.44 326.692 23.1 327.852 25.22C329.052 27.3 329.652 29.68 329.652 32.36C329.652 35.64 328.812 38.44 327.132 40.76C325.452 43.08 323.172 44.86 320.292 46.1C317.412 47.34 314.132 47.96 310.452 47.96ZM310.692 37.94C311.732 37.94 312.632 37.72 313.392 37.28C314.152 36.8 314.752 36.16 315.192 35.36C315.632 34.56 315.852 33.66 315.852 32.66C315.852 31.62 315.632 30.74 315.192 30.02C314.752 29.3 314.132 28.74 313.332 28.34C312.572 27.94 311.692 27.74 310.692 27.74C309.652 27.74 308.732 27.94 307.932 28.34C307.132 28.74 306.512 29.3 306.072 30.02C305.632 30.7 305.412 31.52 305.412 32.48C305.412 33.52 305.632 34.46 306.072 35.3C306.512 36.1 307.132 36.74 307.932 37.22C308.732 37.7 309.652 37.94 310.692 37.94ZM350.745 47.6C347.025 47.6 343.725 46.88 340.845 45.44C338.005 43.96 335.765 41.94 334.125 39.38C332.485 36.82 331.665 33.88 331.665 30.56C331.665 27.24 332.485 24.3 334.125 21.74C335.765 19.18 338.005 17.18 340.845 15.74C343.725 14.3 347.025 13.58 350.745 13.58C354.465 13.58 357.765 14.3 360.645 15.74C363.525 17.18 365.765 19.18 367.365 21.74C369.005 24.3 369.825 27.24 369.825 30.56C369.825 33.88 369.005 36.82 367.365 39.38C365.765 41.94 363.525 43.96 360.645 45.44C357.765 46.88 354.465 47.6 350.745 47.6ZM350.745 37.04C351.745 37.04 352.645 36.8 353.445 36.32C354.245 35.84 354.885 35.12 355.365 34.16C355.845 33.16 356.085 31.96 356.085 30.56C356.085 29.12 355.845 27.94 355.365 27.02C354.885 26.06 354.245 25.34 353.445 24.86C352.645 24.38 351.745 24.14 350.745 24.14C349.745 24.14 348.845 24.38 348.045 24.86C347.245 25.34 346.605 26.06 346.125 27.02C345.645 27.94 345.405 29.12 345.405 30.56C345.405 31.96 345.645 33.16 346.125 34.16C346.605 35.12 347.245 35.84 348.045 36.32C348.845 36.8 349.745 37.04 350.745 37.04ZM374.02 47V14.18H387.52V29L398.86 14.18H411.34V47H397.84V32.12L386.56 47H374.02ZM3.18 120V87.18H16.68V98.7H25.92V87.18H39.42V120H25.92V109.32H16.68V120H3.18ZM64.9177 120V114.18L63.9577 112.62V101.58C63.9577 99.98 63.4577 98.76 62.4577 97.92C61.4977 97.08 59.9177 96.66 57.7177 96.66C56.2377 96.66 54.7377 96.9 53.2177 97.38C51.6977 97.82 50.3977 98.44 49.3177 99.24L44.9977 90.3C46.9177 89.1 49.2177 88.18 51.8977 87.54C54.5777 86.9 57.1977 86.58 59.7577 86.58C65.3977 86.58 69.7577 87.84 72.8377 90.36C75.9577 92.88 77.5177 96.88 77.5177 102.36V120H64.9177ZM55.6177 120.6C52.9377 120.6 50.6977 120.14 48.8977 119.22C47.0977 118.3 45.7377 117.08 44.8177 115.56C43.8977 114 43.4377 112.28 43.4377 110.4C43.4377 108.28 43.9777 106.48 45.0577 105C46.1377 103.52 47.7777 102.4 49.9777 101.64C52.2177 100.88 55.0377 100.5 58.4377 100.5H65.2777V107.04H60.5977C59.1577 107.04 58.0977 107.28 57.4177 107.76C56.7777 108.2 56.4577 108.88 56.4577 109.8C56.4577 110.56 56.7377 111.2 57.2977 111.72C57.8977 112.2 58.6977 112.44 59.6977 112.44C60.6177 112.44 61.4577 112.2 62.2177 111.72C63.0177 111.2 63.5977 110.4 63.9577 109.32L65.6977 113.34C65.1777 115.78 64.0777 117.6 62.3977 118.8C60.7177 120 58.4577 120.6 55.6177 120.6ZM120.172 120V114.18L119.212 112.62V101.58C119.212 99.98 118.712 98.76 117.712 97.92C116.752 97.08 115.172 96.66 112.972 96.66C111.492 96.66 109.992 96.9 108.472 97.38C106.952 97.82 105.652 98.44 104.572 99.24L100.252 90.3C102.172 89.1 104.472 88.18 107.152 87.54C109.832 86.9 112.452 86.58 115.012 86.58C120.652 86.58 125.012 87.84 128.092 90.36C131.212 92.88 132.772 96.88 132.772 102.36V120H120.172ZM110.872 120.6C108.192 120.6 105.952 120.14 104.152 119.22C102.352 118.3 100.992 117.08 100.072 115.56C99.1516 114 98.6916 112.28 98.6916 110.4C98.6916 108.28 99.2316 106.48 100.312 105C101.392 103.52 103.032 102.4 105.232 101.64C107.472 100.88 110.292 100.5 113.692 100.5H120.532V107.04H115.852C114.412 107.04 113.352 107.28 112.672 107.76C112.032 108.2 111.712 108.88 111.712 109.8C111.712 110.56 111.992 111.2 112.552 111.72C113.152 112.2 113.952 112.44 114.952 112.44C115.872 112.44 116.712 112.2 117.472 111.72C118.272 111.2 118.852 110.4 119.212 109.32L120.952 113.34C120.432 115.78 119.332 117.6 117.652 118.8C115.972 120 113.712 120.6 110.872 120.6ZM160.197 120.6C157.357 120.6 154.997 120 153.117 118.8C151.277 117.56 149.917 115.7 149.037 113.22C148.157 110.7 147.717 107.5 147.717 103.62C147.717 99.66 148.117 96.44 148.917 93.96C149.757 91.44 151.097 89.58 152.937 88.38C154.777 87.18 157.197 86.58 160.197 86.58C163.077 86.58 165.717 87.28 168.117 88.68C170.517 90.04 172.437 92 173.877 94.56C175.317 97.08 176.037 100.1 176.037 103.62C176.037 107.14 175.317 110.18 173.877 112.74C172.437 115.26 170.517 117.2 168.117 118.56C165.717 119.92 163.077 120.6 160.197 120.6ZM138.297 131.64V87.18H151.197V91.62L151.257 103.62L151.857 115.62V131.64H138.297ZM156.957 110.04C157.957 110.04 158.857 109.8 159.657 109.32C160.457 108.84 161.097 108.12 161.577 107.16C162.057 106.2 162.297 105.02 162.297 103.62C162.297 102.18 162.057 100.98 161.577 100.02C161.097 99.06 160.457 98.34 159.657 97.86C158.857 97.38 157.957 97.14 156.957 97.14C155.957 97.14 155.057 97.38 154.257 97.86C153.457 98.34 152.817 99.06 152.337 100.02C151.857 100.98 151.617 102.18 151.617 103.62C151.617 105.02 151.857 106.2 152.337 107.16C152.817 108.12 153.457 108.84 154.257 109.32C155.057 109.8 155.957 110.04 156.957 110.04ZM198.126 120.6C194.126 120.6 190.626 119.86 187.626 118.38C184.666 116.9 182.366 114.88 180.726 112.32C179.086 109.72 178.266 106.8 178.266 103.56C178.266 100.24 179.066 97.3 180.666 94.74C182.306 92.18 184.526 90.18 187.326 88.74C190.166 87.3 193.346 86.58 196.866 86.58C200.106 86.58 203.086 87.22 205.806 88.5C208.566 89.78 210.766 91.68 212.406 94.2C214.086 96.72 214.926 99.84 214.926 103.56C214.926 104.04 214.906 104.58 214.866 105.18C214.826 105.74 214.786 106.26 214.746 106.74H189.486V100.2H207.546L202.446 101.94C202.446 100.66 202.206 99.58 201.726 98.7C201.286 97.78 200.666 97.08 199.866 96.6C199.066 96.08 198.106 95.82 196.986 95.82C195.866 95.82 194.886 96.08 194.046 96.6C193.246 97.08 192.626 97.78 192.186 98.7C191.746 99.58 191.526 100.66 191.526 101.94V103.98C191.526 105.38 191.806 106.58 192.366 107.58C192.926 108.58 193.726 109.34 194.766 109.86C195.806 110.34 197.066 110.58 198.546 110.58C200.066 110.58 201.306 110.38 202.266 109.98C203.266 109.58 204.306 108.98 205.386 108.18L212.466 115.32C210.866 117.04 208.886 118.36 206.526 119.28C204.206 120.16 201.406 120.6 198.126 120.6ZM219.801 120V87.18H233.301V98.7H242.541V87.18H256.041V120H242.541V109.32H233.301V120H219.801ZM280.099 120.6C276.099 120.6 272.599 119.86 269.599 118.38C266.639 116.9 264.339 114.88 262.699 112.32C261.059 109.72 260.239 106.8 260.239 103.56C260.239 100.24 261.039 97.3 262.639 94.74C264.279 92.18 266.499 90.18 269.299 88.74C272.139 87.3 275.319 86.58 278.839 86.58C282.079 86.58 285.059 87.22 287.779 88.5C290.539 89.78 292.739 91.68 294.379 94.2C296.059 96.72 296.899 99.84 296.899 103.56C296.899 104.04 296.879 104.58 296.839 105.18C296.799 105.74 296.759 106.26 296.719 106.74H271.459V100.2H289.519L284.419 101.94C284.419 100.66 284.179 99.58 283.699 98.7C283.259 97.78 282.639 97.08 281.839 96.6C281.039 96.08 280.079 95.82 278.959 95.82C277.839 95.82 276.859 96.08 276.019 96.6C275.219 97.08 274.599 97.78 274.159 98.7C273.719 99.58 273.499 100.66 273.499 101.94V103.98C273.499 105.38 273.779 106.58 274.339 107.58C274.899 108.58 275.699 109.34 276.739 109.86C277.779 110.34 279.039 110.58 280.519 110.58C282.039 110.58 283.279 110.38 284.239 109.98C285.239 109.58 286.279 108.98 287.359 108.18L294.439 115.32C292.839 117.04 290.859 118.36 288.499 119.28C286.179 120.16 283.379 120.6 280.099 120.6Z" fill="#FADD08"/>
</svg>
